<svg width="14" height="18" viewBox="0 0 14 18" fill="none" xmlns="http://www.w3.org/2000/svg">
<path fill-rule="evenodd" clip-rule="evenodd" d="M7 16.478C3.76371 16.478 1 16.0164 1 14.1676C1 12.3188 3.74618 10.6121 7 10.6121C10.2363 10.6121 13 12.3022 13 14.1511C13 15.9991 10.2538 16.478 7 16.478Z" stroke="white" stroke-width="1.5" stroke-linecap="round" stroke-linejoin="round"/>
<path fill-rule="evenodd" clip-rule="evenodd" d="M6.99344 8.05014C9.11722 8.05014 10.8386 6.47224 10.8386 4.52544C10.8386 2.57863 9.11722 1 6.99344 1C4.86965 1 3.14748 2.57863 3.14748 4.52544C3.14033 6.46567 4.84972 8.04357 6.96634 8.05014C6.9759 8.05014 6.98467 8.05014 6.99344 8.05014Z" stroke="white" stroke-width="1.5" stroke-linecap="round" stroke-linejoin="round"/>
</svg>
