<svg width="19" height="12" viewBox="0 0 19 12" fill="none" xmlns="http://www.w3.org/2000/svg">
<path d="M5.20047 11.0159L13.8368 10.984C16.6954 10.9734 19.0103 8.72319 19.0001 5.96488C18.9899 3.20656 16.6585 0.973489 13.7999 0.984042L5.16355 1.01593C2.30493 1.02648 -0.00995874 3.27671 0.00022459 6.03502C0.0104079 8.79334 2.34185 11.0264 5.20047 11.0159ZM5.1697 2.68258L13.806 2.6507C15.7146 2.64365 17.266 4.1296 17.2728 5.97125C17.2796 7.81291 15.7392 9.31027 13.8306 9.31732L5.19431 9.3492C3.28569 9.35625 1.73428 7.8703 1.72748 6.02865C1.72069 4.18699 3.26108 2.68963 5.1697 2.68258ZM13.8275 8.48399C15.2612 8.4787 16.4143 7.35777 16.4092 5.97444C16.4041 4.59112 15.2427 3.47873 13.8091 3.48403C12.3755 3.48932 11.2223 4.61025 11.2274 5.99357C11.2325 7.3769 12.3939 8.48928 13.8275 8.48399Z" fill="white"/>
</svg>
